# xmcd CD database file
#
# Track frame offsets:
#	150
#	11253
#	22428
#	34803
#	47557
#	59719
#	75528
#	85353
#	96454
#	108602
#	119132
#	129602
#	141080
#	151127
#	166006
#	177602
#	190727
#	202175
#	215369
#	227926
#	240347
#	256745
#	270493
#	284292
#	294861
#	309603
#	324451
#	340352
#
# Disc length: 4700 seconds
#
# Revision: 2
# Processed by: cddbd v1.5.2PL0 Copyright (c) Steve Scherf et al.
# Submitted via: jetAudio 7
#
DISCID=a0125a1c
DTITLE=Jerry Reed - When You're Hot... The Very Best of 1967-1983
DYEAR=2009
DGENRE=Country
TTITLE0=Guitar Man
TTITLE1=U.S. Male
TTITLE2=Tupelo Mississippi Flash
TTITLE3=Remembering
TTITLE4=Alabama Wild Man
TTITLE5=There's Better Things In Life
TTITLE6=Are You From Dixie ('Cause I'm From Dixie Too)
TTITLE7=Talk About The Good Times
TTITLE8=Georgia Sunshine
TTITLE9=Amos Moses
TTITLE10=When You're Hot, You're Hot
TTITLE11=Ko-Ko Joe
TTITLE12=You Took All The Ramblin' Out Of Me
TTITLE13=Lord, Mr. Ford
TTITLE14=The Crude Oil Blues
TTITLE15=A Good Woman's Love
TTITLE16=Let's Sing Our Song
TTITLE17=Semolita
TTITLE18=East Bound And Down
TTITLE19=You Know What
TTITLE20=I Love You, What Can I Say
TTITLE21=Gimme Back My Blues
TTITLE22=Second Hand Satin Lady (And A Bargain Basement Boy)
TTITLE23=Sugar Foot Rag
TTITLE24=She Got The Goldmine (I Got The Shaft)
TTITLE25=The Bird
TTITLE26=Down On The Corner
TTITLE27=Good Ole Boys
EXTD=
EXTT0=
EXTT1=
EXTT2=
EXTT3=
EXTT4=
EXTT5=
EXTT6=
EXTT7=
EXTT8=
EXTT9=
EXTT10=
EXTT11=
EXTT12=
EXTT13=
EXTT14=
EXTT15=
EXTT16=
EXTT17=
EXTT18=
EXTT19=
EXTT20=
EXTT21=
EXTT22=
EXTT23=
EXTT24=
EXTT25=
EXTT26=
EXTT27=
PLAYORDER=
